<?xml version="1.0" encoding="UTF-8" standalone="no"?>
<!DOCTYPE svg PUBLIC "-//W3C//DTD SVG 1.1//EN"
 "http://www.w3.org/Graphics/SVG/1.1/DTD/svg11.dtd">
<!-- Generated by graphviz version 2.43.0 (0)
 -->
<!-- Title: packaging Pages: 1 -->
<!-- Drawn from packaging.dot, SHA-256 7cfd19846d96130acb729c7858954e0b0a1c58644358c3d3043545da1471af6c -->
<svg xmlns="http://www.w3.org/2000/svg" height="116pt" viewBox="0.00 0.00 567.00 116.00" width="567pt">
  <g class="graph" id="graph0" transform="scale(1 1) rotate(0) translate(4 112)">
    <title>packaging</title>
    <polygon fill="white" points="-4,4 -4,-112 563,-112 563,4 -4,4" stroke="transparent"/>
    <!-- layer_packages -->
    <g class="node" id="node1">
      <title>layer_packages</title>
      <text fill="#555555" font-family="Helvetica,Arial,sans-serif" font-size="14.00" text-anchor="middle" x="88.5" y="-86.3">the packages</text>
    </g>
    <!-- layer_programs -->
    <g class="node" id="node2">
      <title>layer_programs</title>
      <text fill="#555555" font-family="Helvetica,Arial,sans-serif" font-size="14.00" text-anchor="middle" x="51.5" y="-14.3">the programs</text>
    </g>
    <!-- layer_packages&#45;&gt;layer_programs -->
    <!-- packaging -->
    <g class="node" id="node3">
      <title>packaging</title>
      <path d="M304.5,-108C304.5,-108 214.5,-108 214.5,-108 208.5,-108 202.5,-102 202.5,-96 202.5,-96 202.5,-84 202.5,-84 202.5,-78 208.5,-72 214.5,-72 214.5,-72 304.5,-72 304.5,-72 310.5,-72 316.5,-78 316.5,-84 316.5,-84 316.5,-96 316.5,-96 316.5,-102 310.5,-108 304.5,-108" fill="none" stroke="black"/>
      <text font-family="Helvetica,Arial,sans-serif" font-size="14.00" font-weight="bold" text-anchor="start" x="226" y="-91.8">packaging</text>
      <text fill="#555555" font-family="Helvetica,Arial,sans-serif" font-size="10.00" text-anchor="start" x="213.5" y="-81">debs, rpms, MSI, zip</text>
    </g>
    <!-- layer_packages&#45;&gt;packaging -->
    <!-- gui&#45;compose -->
    <g class="node" id="node4">
      <title>gui-compose</title>
      <path d="M547,-36C547,-36 460,-36 460,-36 454,-36 448,-30 448,-24 448,-24 448,-12 448,-12 448,-6 454,0 460,0 460,0 547,0 547,0 553,0 559,-6 559,-12 559,-12 559,-24 559,-24 559,-30 553,-36 547,-36" fill="none" stroke="black"/>
      <text font-family="Helvetica,Arial,sans-serif" font-size="14.00" font-weight="bold" text-anchor="start" x="461" y="-19.8">gui-compose</text>
      <text fill="#555555" font-family="Helvetica,Arial,sans-serif" font-size="10.00" text-anchor="start" x="459" y="-9">window in Compose</text>
    </g>
    <!-- layer_programs&#45;&gt;gui&#45;compose -->
    <!-- gui&#45;swing -->
    <g class="node" id="node5">
      <title>gui-swing</title>
      <path d="M410.5,-36C410.5,-36 338.5,-36 338.5,-36 332.5,-36 326.5,-30 326.5,-24 326.5,-24 326.5,-12 326.5,-12 326.5,-6 332.5,0 338.5,0 338.5,0 410.5,0 410.5,0 416.5,0 422.5,-6 422.5,-12 422.5,-12 422.5,-24 422.5,-24 422.5,-30 416.5,-36 410.5,-36" fill="none" stroke="black"/>
      <text font-family="Helvetica,Arial,sans-serif" font-size="14.00" font-weight="bold" text-anchor="start" x="342.5" y="-19.8">gui-swing</text>
      <text fill="#555555" font-family="Helvetica,Arial,sans-serif" font-size="10.00" text-anchor="start" x="337.5" y="-9">window in Swing</text>
    </g>
    <!-- layer_programs&#45;&gt;gui&#45;swing -->
    <!-- cli -->
    <g class="node" id="node6">
      <title>cli</title>
      <path d="M289,-36C289,-36 230,-36 230,-36 224,-36 218,-30 218,-24 218,-24 218,-12 218,-12 218,-6 224,0 230,0 230,0 289,0 289,0 295,0 301,-6 301,-12 301,-12 301,-24 301,-24 301,-30 295,-36 289,-36" fill="none" stroke="black"/>
      <text font-family="Helvetica,Arial,sans-serif" font-size="14.00" font-weight="bold" text-anchor="start" x="251.5" y="-19.8">cli</text>
      <text fill="#555555" font-family="Helvetica,Arial,sans-serif" font-size="10.00" text-anchor="start" x="229" y="-9">command line</text>
    </g>
    <!-- layer_programs&#45;&gt;cli -->
    <!-- web -->
    <g class="node" id="node7">
      <title>web</title>
      <path d="M180.5,-36C180.5,-36 140.5,-36 140.5,-36 134.5,-36 128.5,-30 128.5,-24 128.5,-24 128.5,-12 128.5,-12 128.5,-6 134.5,0 140.5,0 140.5,0 180.5,0 180.5,0 186.5,0 192.5,-6 192.5,-12 192.5,-12 192.5,-24 192.5,-24 192.5,-30 186.5,-36 180.5,-36" fill="none" stroke="black"/>
      <text font-family="Helvetica,Arial,sans-serif" font-size="14.00" font-weight="bold" text-anchor="start" x="147" y="-19.8">web</text>
      <text fill="#555555" font-family="Helvetica,Arial,sans-serif" font-size="10.00" text-anchor="start" x="139.5" y="-9">web page</text>
    </g>
    <!-- layer_programs&#45;&gt;web -->
    <!-- packaging&#45;&gt;gui&#45;compose -->
    <g class="edge" id="edge7">
      <title>packaging-&gt;gui-compose</title>
      <path d="M316.71,-72.59C353.66,-61.99 401.78,-48.18 439.93,-37.24" fill="none" stroke="black"/>
      <polygon fill="black" points="440.99,-39.84 447.91,-34.95 439.45,-34.46 440.99,-39.84" stroke="black"/>
    </g>
    <!-- packaging&#45;&gt;gui&#45;swing -->
    <g class="edge" id="edge8">
      <title>packaging-&gt;gui-swing</title>
      <path d="M287.63,-71.88C303.23,-62.38 322.76,-50.5 339.35,-40.4" fill="none" stroke="black"/>
      <polygon fill="black" points="340.88,-42.74 346.26,-36.19 337.97,-37.96 340.88,-42.74" stroke="black"/>
    </g>
    <!-- packaging&#45;&gt;cli -->
    <g class="edge" id="edge9">
      <title>packaging-&gt;cli</title>
      <path d="M259.5,-71.7C259.5,-63.39 259.5,-53.28 259.5,-44.14" fill="none" stroke="black"/>
      <polygon fill="black" points="262.3,-44.1 259.5,-36.1 256.7,-44.1 262.3,-44.1" stroke="black"/>
    </g>
    <!-- packaging&#45;&gt;web -->
    <g class="edge" id="edge10">
      <title>packaging-&gt;web</title>
      <path d="M235.28,-71.88C222.1,-62.55 205.64,-50.92 191.53,-40.94" fill="none" stroke="black"/>
      <polygon fill="black" points="192.96,-38.52 184.81,-36.19 189.73,-43.09 192.96,-38.52" stroke="black"/>
    </g>
  </g>
</svg>
